<svg width="20" height="20" viewBox="0 0 20 20" fill="none" xmlns="http://www.w3.org/2000/svg">
<g clip-path="url(#clip0_16_2957)">
<path d="M5.52217 4.55146C5.23373 4.26279 4.76576 4.26279 4.47732 4.55146C3.40639 5.6224 2.88002 7.11428 3.03299 8.64482C3.07115 9.02611 3.39236 9.31033 3.76748 9.31033C3.79213 9.31033 3.81697 9.30908 3.84162 9.30662C4.24779 9.266 4.54408 8.90365 4.50346 8.49775C4.39459 7.41006 4.76603 6.35244 5.52217 5.59627C5.81084 5.30787 5.81084 4.83986 5.52217 4.55146Z" fill="white"/>
<path d="M8.44828 0C3.78988 0 0 3.78988 0 8.44828C0 13.1067 3.78988 16.8966 8.44828 16.8966C13.1067 16.8966 16.8966 13.1067 16.8966 8.44828C16.8966 3.78988 13.1066 0 8.44828 0ZM8.44828 15.4187C4.60469 15.4187 1.47785 12.2919 1.47785 8.44828C1.47785 4.60469 4.60469 1.47785 8.44828 1.47785C12.2916 1.47785 15.4187 4.60469 15.4187 8.44828C15.4187 12.2919 12.2919 15.4187 8.44828 15.4187Z" fill="white"/>
<path d="M19.7835 18.7387L14.4141 13.3692C14.1254 13.0805 13.6579 13.0805 13.3692 13.3692C13.0805 13.6577 13.0805 14.1256 13.3692 14.4141L18.7387 19.7835C18.8072 19.8522 18.8886 19.9068 18.9783 19.9439C19.068 19.9811 19.1641 20.0001 19.2611 20C19.4503 20 19.6392 19.9278 19.7835 19.7835C20.0722 19.4951 20.0722 19.0271 19.7835 18.7387Z" fill="white"/>
</g>
<defs>
<clipPath id="clip0_16_2957">
<rect width="20" height="20" fill="white"/>
</clipPath>
</defs>
</svg>
